<svg width="22" height="15" viewBox="0 0 22 15" fill="none" xmlns="http://www.w3.org/2000/svg">
<path d="M11.6669 6.9147L4.99166 0.239632C4.83727 0.0851213 4.63118 0 4.41142 0C4.19167 0 3.98557 0.0851213 3.83118 0.239632L3.3396 0.731092C3.01973 1.05133 3.01973 1.57182 3.3396 1.89157L8.94492 7.49689L3.33338 13.1084C3.17899 13.2629 3.09375 13.4689 3.09375 13.6885C3.09375 13.9084 3.17899 14.1144 3.33338 14.269L3.82496 14.7604C3.97947 14.9149 4.18545 15 4.4052 15C4.62496 15 4.83105 14.9149 4.98544 14.7604L11.6669 8.0792C11.8216 7.9242 11.9066 7.71725 11.9061 7.49726C11.9066 7.2764 11.8216 7.06958 11.6669 6.9147Z" fill="#E5E5E5"/>
<path d="M18.6669 6.9147L11.9917 0.239632C11.8373 0.0851213 11.6312 0 11.4114 0C11.1917 0 10.9856 0.0851213 10.8312 0.239632L10.3396 0.731092C10.0197 1.05133 10.0197 1.57182 10.3396 1.89157L15.9449 7.49689L10.3334 13.1084C10.179 13.2629 10.0938 13.4689 10.0938 13.6885C10.0938 13.9084 10.179 14.1144 10.3334 14.269L10.825 14.7604C10.9795 14.9149 11.1854 15 11.4052 15C11.625 15 11.8311 14.9149 11.9854 14.7604L18.6669 8.0792C18.8216 7.9242 18.9066 7.71725 18.9061 7.49726C18.9066 7.2764 18.8216 7.06958 18.6669 6.9147Z" fill="#E5E5E5"/>
</svg>
