<svg width="32" height="32" viewBox="0 0 32 32" fill="none" xmlns="http://www.w3.org/2000/svg">
<rect x="0.5" y="0.5" width="31" height="31" rx="4.5" stroke="#E5E5E5"/>
<path d="M7.1781 21.064H3V19.9862H4.38383V11.5568H3V10.479H7.1781V11.5568H5.79427V19.9862H7.1781V21.064ZM11.6622 21.064H9.95906V19.0415H11.6622V21.064ZM20.6372 20.565C20.1981 20.7779 19.7723 20.9442 19.3731 21.064C18.9739 21.1837 18.5481 21.2369 18.0957 21.2369C17.5235 21.2369 16.998 21.1571 16.5189 20.9841C16.0399 20.8178 15.6341 20.565 15.2948 20.2257C14.9422 19.8797 14.676 19.4539 14.4898 18.9284C14.2968 18.4094 14.2037 17.804 14.2037 17.1054C14.2037 15.8081 14.5629 14.7902 15.2748 14.0517C15.9867 13.3066 16.9248 12.9406 18.0957 12.9406C18.5481 12.9406 19.0005 13.0072 19.4396 13.1336C19.8721 13.26 20.2779 13.4197 20.6372 13.5993V15.0829H20.5706C20.1648 14.7702 19.7456 14.5307 19.3066 14.3577C18.8741 14.1914 18.4483 14.1049 18.0358 14.1049C17.284 14.1049 16.6853 14.3577 16.2462 14.87C15.8071 15.3756 15.5875 16.1208 15.5875 17.1054C15.5875 18.0568 15.8004 18.7953 16.2329 19.3076C16.6586 19.8199 17.2641 20.0727 18.0358 20.0727C18.3086 20.0727 18.588 20.0394 18.8608 19.9729C19.1402 19.8997 19.393 19.8065 19.6192 19.6934C19.8122 19.5937 19.9918 19.4939 20.1648 19.3808C20.3311 19.2743 20.4708 19.1812 20.5706 19.1013H20.6372V20.565V20.565ZM29 21.064H27.6561V16.5466C27.6561 16.1807 27.6361 15.8414 27.5962 15.5154C27.5496 15.196 27.4765 14.9498 27.3567 14.7702C27.2369 14.5706 27.0706 14.4243 26.8444 14.3245C26.6182 14.2247 26.3321 14.1781 25.9729 14.1781C25.6136 14.1781 25.2277 14.2712 24.8286 14.4509C24.4294 14.6305 24.0502 14.8567 23.6842 15.1361V21.064H22.347V10H23.6842V14.0118C24.1034 13.6658 24.5292 13.3997 24.9816 13.2001C25.4273 13.0072 25.8864 12.914 26.3521 12.914C27.2103 12.914 27.869 13.1668 28.3214 13.6858C28.7738 14.2047 29 14.9432 29 15.9145V21.064V21.064Z" fill="#E5E5E5"/>
</svg>
