<svg id="Capa_1" enable-background="new 0 0 512 512" height="512" viewBox="0 0 512 512" width="512" xmlns="http://www.w3.org/2000/svg"><path d="m360.089 320.04h-30.185l-17.09-24.759c18.511-13.044 32.359-32.275 38.52-54.66 21.533-3.313 38.204-22.139 38.204-44.456 0-11.736-4.46-22.415-11.802-30.426v-70.631c0-38.123-31.016-69.138-69.139-69.138h-8.463c-18.243-16.762-41.847-25.97-66.685-25.97-20.752 0-40.606 6.375-57.415 18.436-3.365 2.415-4.136 7.101-1.721 10.466 2.414 3.365 7.099 4.135 10.466 1.721 14.244-10.221 31.074-15.623 48.679-15.623 21.565 0 42.041 8.194 57.657 23.074 1.961 1.868 4.525 2.896 7.22 2.896h10.261c29.852 0 54.139 24.286 54.139 54.138v59.88c-3.247-1.427-6.698-2.483-10.306-3.114-3.477-15.426-10.639-29.855-20.923-42.018-3.538-4.183-9.77-4.924-14.188-1.687-41.028 30.072-81.166 30.07-122.706-.004-4.407-3.192-10.616-2.436-14.134 1.72-10.283 12.147-17.441 26.567-20.91 41.99-3.386.593-6.635 1.56-9.706 2.857v-56.146c0-16.736 4.927-32.882 14.248-46.694 2.317-3.434 1.412-8.095-2.021-10.412-3.434-2.317-8.095-1.412-10.412 2.021-11 16.3-16.814 35.348-16.814 55.085v66.502c-7.701 8.078-12.399 19.024-12.399 31.077 0 22.319 16.67 41.144 38.204 44.456 6.16 22.385 20.009 41.615 38.519 54.659l-17.09 24.759h-30.186c-42.158 0-76.456 34.298-76.456 76.456v16.359c0 4.142 3.358 7.5 7.5 7.5s7.5-3.358 7.5-7.5v-16.359c0-33.887 27.569-61.456 61.456-61.456h28.791l23.786 68.342 15.727 93.619h-66.231v-55.705c0-4.142-3.358-7.5-7.5-7.5s-7.5 3.358-7.5 7.5v55.705h-48.53v-51.698c0-4.142-3.358-7.5-7.5-7.5s-7.5 3.358-7.5 7.5v54.591c0 6.676 5.431 12.107 12.107 12.107h222.81c4.142 0 7.5-3.358 7.5-7.5s-3.358-7.5-7.5-7.5h-18.587l15.727-93.617 23.787-68.343h28.791c33.887 0 61.457 27.569 61.457 61.456v100.504h-48.53v-55.705c0-4.142-3.358-7.5-7.5-7.5s-7.5 3.358-7.5 7.5v55.705h-15.196c-4.142 0-7.5 3.358-7.5 7.5s3.358 7.5 7.5 7.5h81.619c6.676 0 12.107-5.431 12.107-12.107v-103.397c-.001-42.159-34.299-76.456-76.457-76.456zm-5.733-95.562c.336-3.309.508-6.665.508-10.061v-40.738c0-1.92-.076-3.84-.186-5.757 11.818 4.206 19.858 15.711 19.858 28.243.001 12.992-8.474 24.207-20.18 28.313zm-216.893-28.313c0-12.542 8.027-24.032 19.858-28.243-.111 1.917-.186 3.837-.186 5.757v40.738c0 3.396.173 6.753.508 10.062-11.705-4.106-20.18-15.322-20.18-28.314zm34.672 18.252v-40.738c0-4.57.372-9.151 1.102-13.62.008-.043.021-.085.028-.128 2.215-13.501 7.746-26.256 16.069-37.133 22.247 15.293 44.566 22.939 66.833 22.937 22.267-.001 44.485-7.653 66.492-22.949 8.314 10.882 13.845 23.633 16.071 37.123.007.044.019.086.027.129.002.012.005.024.008.036.729 4.464 1.1 9.041 1.1 13.606v40.738c0 30.798-16.698 57.754-41.506 72.337-.036.022-.073.04-.108.062-12.417 7.274-26.85 11.466-42.25 11.466-15.404 0-29.84-4.193-42.259-11.471-.023-.014-.047-.026-.069-.04-24.826-14.58-41.538-41.545-41.538-72.355zm83.865 98.864c8.029 0 15.835-.969 23.314-2.784l-23.314 30.071-23.314-30.071c7.479 1.815 15.285 2.784 23.314 2.784zm36.304 90.079-11.743 69.907-16.302-49.632 19.545-29.518zm-64.108-9.242 19.545 29.518-16.302 49.632-11.744-69.907zm27.804 52.441 16.567 50.441h-33.135zm0-37.619-17.344-26.194 17.344-18.858 17.344 18.858zm-45.889-103.081 36.079 46.536-31.604 34.363-20.219-58.091zm87.304 80.9-8.117-8.826c-.486-.79-1.127-1.497-1.912-2.079l-21.576-23.459 36.079-46.536 15.744 22.809z"/></svg>