<svg id="Capa_1" enable-background="new 0 0 512 512" height="512" viewBox="0 0 512 512" width="512" xmlns="http://www.w3.org/2000/svg"><g><path d="m504.5 68.804h-6.76l-15.109-21.432c-3.241-4.6-8.536-7.346-14.163-7.346h-73.225c-4.143 0-7.5 3.357-7.5 7.5s3.357 7.5 7.5 7.5h73.225c.756 0 1.466.369 1.902.987l9.017 12.79h-446.775l9.017-12.79c.436-.618 1.147-.987 1.903-.987h321.725c4.143 0 7.5-3.357 7.5-7.5s-3.357-7.5-7.5-7.5h-321.725c-5.626 0-10.921 2.745-14.163 7.345l-15.109 21.433h-6.76c-4.143 0-7.5 3.357-7.5 7.5v388.169c0 4.143 3.357 7.5 7.5 7.5h53.693c4.143 0 7.5-3.357 7.5-7.5s-3.357-7.5-7.5-7.5h-46.193v-373.169h482v373.169h-405.819c-4.143 0-7.5 3.357-7.5 7.5s3.357 7.5 7.5 7.5h413.319c4.143 0 7.5-3.357 7.5-7.5v-388.169c0-4.142-3.357-7.5-7.5-7.5z"/><path d="m310.74 106.961h-61.609c-4.143 0-7.5 3.357-7.5 7.5s3.357 7.5 7.5 7.5h61.609c4.143 0 7.5-3.357 7.5-7.5s-3.357-7.5-7.5-7.5z"/><path d="m220.623 106.961h-19.362c-4.143 0-7.5 3.357-7.5 7.5s3.357 7.5 7.5 7.5h19.362c4.143 0 7.5-3.357 7.5-7.5s-3.357-7.5-7.5-7.5z"/><path d="m156.574 371.359 18.662-18.661c2.93-2.929 2.93-7.678.001-10.606s-7.678-2.93-10.606-.001l-16.466 16.465h-66.972c-4.143 0-7.5 3.357-7.5 7.5s3.357 7.5 7.5 7.5h70.078c1.99-.001 3.897-.791 5.303-2.197z"/><path d="m97.685 416.287c0-4.143-3.357-7.5-7.5-7.5h-8.991c-4.143 0-7.5 3.357-7.5 7.5s3.357 7.5 7.5 7.5h8.991c4.142 0 7.5-3.358 7.5-7.5z"/><path d="m139.104 408.787h-27.361c-4.143 0-7.5 3.357-7.5 7.5s3.357 7.5 7.5 7.5h27.361c4.143 0 7.5-3.357 7.5-7.5s-3.357-7.5-7.5-7.5z"/><path d="m81.193 384.53c-4.143 0-7.5 3.357-7.5 7.5s3.357 7.5 7.5 7.5h8.991c4.143 0 7.5-3.357 7.5-7.5s-3.357-7.5-7.5-7.5z"/><path d="m139.104 384.53h-27.361c-4.143 0-7.5 3.357-7.5 7.5s3.357 7.5 7.5 7.5h27.361c4.143 0 7.5-3.357 7.5-7.5s-3.357-7.5-7.5-7.5z"/><path d="m430.807 358.555h-66.972l-16.464-16.465c-2.93-2.928-7.678-2.928-10.607 0-2.929 2.93-2.929 7.678 0 10.607l18.661 18.661c1.407 1.406 3.314 2.196 5.304 2.196h70.078c4.143 0 7.5-3.357 7.5-7.5s-3.358-7.499-7.5-7.499z"/><path d="m430.807 408.787h-8.991c-4.143 0-7.5 3.357-7.5 7.5s3.357 7.5 7.5 7.5h8.991c4.143 0 7.5-3.357 7.5-7.5s-3.358-7.5-7.5-7.5z"/><path d="m400.258 408.787h-27.361c-4.143 0-7.5 3.357-7.5 7.5s3.357 7.5 7.5 7.5h27.361c4.143 0 7.5-3.357 7.5-7.5s-3.358-7.5-7.5-7.5z"/><path d="m430.807 384.53h-8.991c-4.143 0-7.5 3.357-7.5 7.5s3.357 7.5 7.5 7.5h8.991c4.143 0 7.5-3.357 7.5-7.5s-3.358-7.5-7.5-7.5z"/><path d="m400.258 384.53h-27.361c-4.143 0-7.5 3.357-7.5 7.5s3.357 7.5 7.5 7.5h27.361c4.143 0 7.5-3.357 7.5-7.5s-3.358-7.5-7.5-7.5z"/><path d="m126.332 156.684c-4.143 0-7.5 3.357-7.5 7.5v27.391c-27.25 3.675-48.327 27.085-48.327 55.324 0 30.783 25.044 55.827 55.827 55.827 7.575 0 15.04-1.538 21.944-4.49l14.052 23.512c1.02 1.707 2.677 2.939 4.605 3.425 1.904.48 3.949.2 5.68-.835 27.1-16.195 43.935-45.869 43.935-77.439 0-23.949-9.425-46.563-26.538-63.677s-39.729-26.538-63.678-26.538zm0 131.042c-22.512 0-40.827-18.315-40.827-40.827 0-19.95 14.385-36.604 33.327-40.136v40.136c0 1.354.367 2.685 1.062 3.848l20.59 34.452c-4.507 1.664-9.297 2.527-14.152 2.527zm44.828 19.563-37.328-62.46v-72.771c17.133 1.716 33.094 9.295 45.57 21.771 14.28 14.28 22.145 33.128 22.145 53.07 0 23.804-11.48 46.314-30.387 60.39z"/><path d="m223.312 152.47c0 4.143 3.357 7.5 7.5 7.5h50.376c4.143 0 7.5-3.357 7.5-7.5s-3.357-7.5-7.5-7.5h-50.376c-4.142 0-7.5 3.358-7.5 7.5z"/><path d="m414.957 171.508c-17.113-17.113-39.728-26.538-63.677-26.538-4.143 0-7.5 3.357-7.5 7.5v27.391c-27.249 3.675-48.326 27.085-48.326 55.324 0 12.253 3.934 23.924 11.202 33.551l-19.483 19.253c-2.946 2.911-2.975 7.66-.063 10.606 16.833 17.035 40.222 26.805 64.171 26.805 14.5 0 28.973-3.606 41.854-10.429 3.661-1.938 5.057-6.478 3.118-10.138-1.938-3.66-6.479-5.057-10.138-3.118-10.728 5.682-22.773 8.685-34.835 8.685-17.456 0-34.556-6.226-47.958-17.281l18.853-18.63c.002-.002.004-.003.005-.005l34.371-33.964c1.426-1.409 2.229-3.33 2.229-5.335v-74.841c17.133 1.716 33.094 9.295 45.57 21.771 14.28 14.28 22.145 33.128 22.145 53.07 0 18.125-6.681 35.699-18.811 49.485-2.736 3.109-2.434 7.849.677 10.585 3.107 2.735 7.848 2.433 10.585-.677 14.541-16.526 22.549-37.619 22.549-59.394 0-23.948-9.425-46.562-26.538-63.676zm-104.503 63.677c0-19.95 14.384-36.604 33.326-40.136v37.003l-26.322 26.01c-4.554-6.704-7.004-14.609-7.004-22.877z"/></g></svg>