<?xml version="1.0" encoding="UTF-8"?>
<svg xmlns="http://www.w3.org/2000/svg" id="line_icons" data-name="line icons" viewBox="0 0 74 74" width="512" height="512"><path d="M66.876,59.016H7.124A4.912,4.912,0,0,1,2.217,54.11V6.906A4.912,4.912,0,0,1,7.124,2H66.876a4.912,4.912,0,0,1,4.907,4.906v47.2A4.912,4.912,0,0,1,66.876,59.016ZM7.124,4A2.91,2.91,0,0,0,4.217,6.906v47.2a2.91,2.91,0,0,0,2.907,2.906H66.876a2.91,2.91,0,0,0,2.907-2.906V6.906A2.91,2.91,0,0,0,66.876,4Z"/><path d="M66.881,59.016H7.119a4.908,4.908,0,0,1-4.9-4.9v-9a1,1,0,0,1,1-1H70.783a1,1,0,0,1,1,1v9A4.908,4.908,0,0,1,66.881,59.016ZM4.217,46.115v8a2.906,2.906,0,0,0,2.9,2.9H66.881a2.906,2.906,0,0,0,2.9-2.9v-8Z"/><path d="M47,66.507H27a1,1,0,0,1-1-1V58.016a1,1,0,0,1,1-1H47a1,1,0,0,1,1,1v7.491A1,1,0,0,1,47,66.507ZM28,64.507H46V59.016H28Z"/><path d="M53.343,72H20.657a1,1,0,0,1-1-1v-.375a6.124,6.124,0,0,1,6.118-6.118h22.45a6.124,6.124,0,0,1,6.118,6.118V71A1,1,0,0,1,53.343,72ZM21.7,70H52.3a4.125,4.125,0,0,0-4.071-3.493H25.775A4.125,4.125,0,0,0,21.7,70Z"/><path d="M37,54.854a3.289,3.289,0,1,1,3.289-3.289A3.293,3.293,0,0,1,37,54.854Zm0-4.577a1.289,1.289,0,1,0,1.289,1.288A1.29,1.29,0,0,0,37,50.277Z"/><path d="M37.932,35.638a3.39,3.39,0,0,1-2.278-.876h0L29.533,29.2a3.381,3.381,0,0,1-.776-3.954,37.247,37.247,0,0,1,5.925-8.566c7.688-8.464,19.177-9.7,19.663-9.751a1,1,0,0,1,1.1,1c0,.487-.133,12.043-7.821,20.507a37.248,37.248,0,0,1-7.959,6.718A3.324,3.324,0,0,1,37.932,35.638ZM37,33.281a1.37,1.37,0,0,0,1.624.166,35.187,35.187,0,0,0,7.52-6.355c5.791-6.377,6.99-14.908,7.237-17.995-3.048.542-11.426,2.553-17.218,8.929a35.235,35.235,0,0,0-5.6,8.095,1.369,1.369,0,0,0,.321,1.6Z"/><path d="M24.158,25.749a1,1,0,0,1-.985-1.176,7.851,7.851,0,0,1,1.176-2.96A9.826,9.826,0,0,1,34.63,17.607a1,1,0,0,1-.536,1.927,7.836,7.836,0,0,0-8.073,3.177c-.03.046-.06.092-.088.138a8.742,8.742,0,0,1,4.978.09,1,1,0,0,1-.6,1.907,6.556,6.556,0,0,0-5.593.733A1,1,0,0,1,24.158,25.749Z"/><path d="M40.6,40.686a1,1,0,0,1-.881-1.475,6.557,6.557,0,0,0,.194-5.637,1,1,0,1,1,1.84-.784,8.731,8.731,0,0,1,.567,4.947c.043-.032.085-.066.127-.1A7.837,7.837,0,0,0,44.841,29.3a1,1,0,1,1,1.866-.718,9.827,9.827,0,0,1-3,10.619,7.848,7.848,0,0,1-2.831,1.452A1,1,0,0,1,40.6,40.686Z"/><path d="M53.317,16.374a1.032,1.032,0,0,1-.262-.035A10.093,10.093,0,0,1,46.2,10.1a1,1,0,0,1,1.879-.685,8.1,8.1,0,0,0,5.5,5,1,1,0,0,1-.261,1.966Z"/><path d="M45.246,21.45a3.594,3.594,0,1,1,2.662-1.177A3.58,3.58,0,0,1,45.246,21.45Zm0-5.186a1.593,1.593,0,1,0,1.07.413A1.592,1.592,0,0,0,45.249,16.264Z"/><path d="M31.634,41.616a.986.986,0,0,1-.885-.539,10.154,10.154,0,0,1-.8-2.905,5.169,5.169,0,0,1-.729.07c-.624.02-1.454,1.045-2.014,2.492a1.045,1.045,0,0,1-.959.656.994.994,0,0,1-.933-.657c-.346-1-1.01-5.031,1.987-6.566a5.542,5.542,0,0,0-1.116.484,1.012,1.012,0,0,1-1.069-.023,1,1,0,0,1-.443-.966,10.8,10.8,0,0,1,3-5.137,5.891,5.891,0,0,1,1.964-1.2,1,1,0,0,1,1.019.2l6.6,5.992a1,1,0,0,1,.293,1A5.94,5.94,0,0,1,34.219,38.4l-.108.05a2.5,2.5,0,0,0-1.47,2.176,1.013,1.013,0,0,1-.776.967A1.076,1.076,0,0,1,31.634,41.616Zm-.47-5.971a1,1,0,0,1,.825,1.565.7.7,0,0,0-.076.357,4.231,4.231,0,0,1,1.391-.95l.087-.04a3.978,3.978,0,0,0,2.029-2.028L29.8,29.442a3.859,3.859,0,0,0-.763.547A8.271,8.271,0,0,0,27.42,32.1a2.548,2.548,0,0,1,.944.041,1.732,1.732,0,0,1,1.126.859.981.981,0,0,1,.068.152,2.321,2.321,0,0,1-1.274,2.753,2.092,2.092,0,0,0-1.034,1.139,3.04,3.04,0,0,1,1.908-.806,2.771,2.771,0,0,0,1.49-.454A.994.994,0,0,1,31.164,35.645Z"/></svg>
