<svg height="61pt" viewBox="0 0 61.228516 61" width="61pt" xmlns="http://www.w3.org/2000/svg"><path d="m49.078125 43.964844c.230469.050781.460937.078125.695313.078125.546874 0 1.089843-.152344 1.570312-.445313.679688-.421875 1.15625-1.085937 1.34375-1.863281.378906-1.609375-.621094-3.230469-2.230469-3.609375-.78125-.183594-1.585937-.054688-2.269531.367188-.679688.421874-1.15625 1.082031-1.339844 1.863281-.183594.777343-.054687 1.582031.367188 2.265625s1.082031 1.160156 1.863281 1.34375zm-.285156-3.148438c0-.003906 0-.003906 0-.003906.0625-.257812.21875-.480469.449219-.621094.160156-.097656.339843-.148437.523437-.148437.074219 0 .152344.007812.230469.027343.535156.125.871094.667969.742187 1.203126-.058593.261718-.21875.480468-.445312.621093-.226563.140625-.496094.183594-.757813.121094-.257812-.058594-.480468-.21875-.621094-.445313-.140624-.226562-.183593-.496093-.121093-.753906zm0 0"/><path d="m59.121094 58.003906 1.460937-6.1875c.058594-.257812.015625-.527344-.125-.753906l-5.128906-8.300781c.984375-3.726563.539063-7.644531-1.269531-11.050781l-.972656-1.839844c-.132813-.257813-.375-.441406-.65625-.507813-.28125-.066406-.574219-.007812-.808594.160157l-1.695313 1.210937c-3.023437 2.15625-5.183593 6.21875-6.070312 9.460937l-8.132813 5.027344c-.226562.140625-.386718.363282-.449218.621094l-1.492188 6.328125c-.707031-.023437-1.429688-.039063-2.167969-.046875v-23.976562l.136719-2.066407c.011719-.1875-.046875-.367187-.136719-.53125v-8.769531l23.386719-9.742188c.402344-.167968.652344-.582031.609375-1.019531-.042969-.433593-.363281-.792969-.789063-.882812l-23.207031-4.855469v-.167969h-2v25.054688l-10.445312 1.453125c.261719-.632813.375-1.332032.273437-2.058594-.144531-1.058594-.695312-1.996094-1.546875-2.640625-.855469-.640625-1.90625-.917969-2.964843-.769531-1.058594.148437-1.996094.699218-2.640626 1.550781-.644531.851563-.917968 1.90625-.769531 2.964844.070313.503906.238281.976562.472657 1.398437l-10.015626-3.882812c-.308593-.121094-.65625-.078125-.929687.105468-.269531.1875-.433594.496094-.433594.824219v2.933594c0 .355469.191407.6875.503907.863281l9.453124 5.449219.753907 5.394531.21875 15.621094c-7.710938 2.046875-11.308594 4.769531-11.542969 4.949219l1.226562 1.578125c.089844-.066406 8.964844-6.789063 29.386719-6.789063 20.335938 0 29.300781 6.722657 29.386719 6.789063l1.226562-1.578125c-.097656-.074219-.785156-.59375-2.105468-1.320313zm-27.417969-55.660156 19.546875 4.089844-19.625 8.175781zm26.078125 52.617188-1.386719-3.726563c-.074219-.191406-.199219-.355469-.367187-.472656l-2.898438-2.011719c.519532-.964844 1.03125-2.3125 1.417969-3.449219l3.992187 6.460938zm-6.691406-22.597657.761718-.546875.441407.832032c1.589843 3 1.972656 6.457031 1.074219 9.730468-.003907.011719-.03125.109375-.03125.121094-.019532.054688-.035157.109375-.042969.144531v.003907c-.402344 1.398437-1.164063 3.660156-1.824219 4.960937l-.160156-.039063c-.039063-.007812-.078125 0-.117188-.003906l-.949218-.226562c-.316407-.070313-.644532.007812-.886719.21875-.242188.210937-.367188.527344-.339844.847656l.160156 1.765625-3.140625-.742187.933594-1.507813c.167969-.273437.195312-.613281.074219-.910156-.125-.296875-.382813-.515625-.695313-.589844l-1.222656-.289063c0-.070312 0-.144531.003906-.21875.007813-1.457031.28125-3.425781.527344-4.730468l.023438-.101563c.71875-2.9375 2.671874-6.769531 5.410156-8.71875zm-13.964844 14.34375 6.246094-3.859375c-.007813.050782-.011719.105469-.019532.15625-.019531.15625-.039062.308594-.054687.464844-.011719.101562-.023437.199219-.035156.300781-.015625.144531-.027344.289063-.042969.433594-.007812.101563-.015625.203125-.023438.304687-.011718.152344-.023437.296876-.03125.445313-.003906.085937-.011718.175781-.015624.261719-.011719.230468-.019532.453125-.019532.667968-.003906.195313-.003906.386719.003906.578126l-3.3125.472656c-.203124.03125-.390624.121094-.539062.261718l-2.910156 2.710938zm3.289062 2.164063 3.96875-.570313-.777343 1.257813c-.167969.273437-.195313.613281-.074219.910156.125.296875.382812.515625.695312.589844l5.839844 1.378906c.074219.019531.152344.027344.230469.027344.238281 0 .46875-.085938.652344-.246094.242187-.210938.371093-.523438.34375-.84375l-.140625-1.5625 3.476562 2.414062 1.640625 4.390626c-3.941406-1.695313-10.332031-3.667969-19.554687-4.296876zm-13.152343 3.304687-4.054688-15.078125-.703125-5.066406 7.109375-2.503906v22.597656c-.800781.007812-1.585937.023438-2.351562.050781zm-5.773438-13.761719 3.664063 13.625-.246094.035157-5.980469-8.707031c-.214843-.3125-.589843-.480469-.960937-.421876-.375.050782-.691406.308594-.8125.667969l-3.375 10.007813-.246094.035156-.195312-14.105469zm-3.894531-4.851562-.789062 1.046875-1.050782-.792969.128906-4.71875.300782-.042968zm-3.707031-9.652344c.320312-.425781.789062-.703125 1.320312-.777344.09375-.011718.1875-.019531.277344-.019531.433594 0 .851563.140625 1.203125.40625.425781.320313.699219.789063.773438 1.320313.152343 1.089844-.609376 2.101562-1.703126 2.253906v.003906c-1.09375.148438-2.105468-.613281-2.257812-1.707031-.074219-.527344.0625-1.054687.386719-1.480469zm-11.273438 2.558594v-.894531l9.949219 3.859375c.15625.0625.328125.082031.5.058594l.8125-.113282-.132812 4.898438c-.007813.324218.140624.632812.398437.824218l2.253906 1.707032c.179688.136718.390625.199218.601563.199218.304687 0 .601562-.136718.800781-.394531l1.703125-2.257812c.195312-.257813.253906-.59375.15625-.902344l-1.464844-4.675781 11.421875-1.589844v.21875l-8.546875 3.007812c-.449218.160157-.722656.613282-.65625 1.082032l.6875 4.953125-7.921875 1.101562-.691406-4.949219c-.042969-.308593-.222656-.578124-.492187-.730468zm15.796875 19.679688 4.335938 6.3125c-2.476563.222656-4.730469.539062-6.777344.921874zm0 0"/></svg>