<svg height="511pt" viewBox="-2 0 511 511.998" width="511pt" xmlns="http://www.w3.org/2000/svg"><path d="m352.609375 294.46875c-3.054687-2.847656-7.835937-2.675781-10.683594.378906-2.84375 3.054688-2.671875 7.835938.378907 10.679688 1.523437 1.417968 2.957031 2.855468 4.335937 4.332031 12.074219 13.226563 18.277344 30.363281 17.464844 48.25-.816407 17.886719-8.546875 34.386719-21.773438 46.460937-27.300781 24.921876-69.789062 22.992188-94.710937-4.3125-24.925782-27.273437-22.988282-69.761718 4.308594-94.707031 17.515624-15.988281 41.554687-21.5 64.300781-14.75 4.003906 1.191407 8.207031-1.09375 9.398437-5.09375 1.1875-4-1.09375-8.207031-5.097656-9.394531-27.453125-8.152344-57.644531-1.222656-78.792969 18.078125-33.453125 30.570313-35.820312 82.636719-5.277343 116.058594 16.183593 17.730469 38.402343 26.730469 60.703124 26.726562 19.785157 0 39.632813-7.085937 55.359376-21.445312 16.207031-14.792969 25.683593-35.015625 26.679687-56.9375.996094-21.917969-6.601563-42.917969-21.449219-59.179688-1.675781-1.796875-3.359375-3.480469-5.144531-5.144531zm0 0"/><path d="m161.929688 153.378906c-2.875-.589844-5.847657-.898437-8.890626-.898437-3.042968 0-6.011718.3125-8.882812.898437-20.09375 4.125-35.25 21.941406-35.25 43.234375 0 24.351563 19.796875 44.164063 44.132812 44.164063 24.351563 0 44.164063-19.8125 44.164063-44.164063-.003906-21.292969-15.171875-39.109375-35.273437-43.234375zm-8.890626 72.285156c-16.003906 0-29.019531-13.03125-29.019531-29.046874 0-16.003907 13.015625-29.019532 29.019531-29.019532 16.015626 0 29.046876 13.015625 29.046876 29.019532 0 16.015624-13.03125 29.046874-29.046876 29.046874zm0 0"/><path d="m507.5 131.445312c0-20.410156-4.570312-40.007812-13.585938-58.257812-1.847656-3.738281-6.378906-5.273438-10.125-3.425781-3.742187 1.847656-5.273437 6.378906-3.425781 10.121093 7.976563 16.148438 12.019531 33.496094 12.019531 51.5625 0 64.125-52.183593 116.296876-116.328124 116.296876-64.148438 0-116.332032-52.171876-116.332032-116.296876 0-64.144531 52.183594-116.332031 116.332032-116.332031 32.117187 0 63.109374 13.464844 85.027343 36.941407 2.851563 3.050781 7.632813 3.214843 10.683594.367187s3.214844-7.628906.367187-10.683594c-24.765624-26.523437-59.785156-41.738281-96.078124-41.738281-55.023438 0-102.25 33.988281-121.8125 82.066406l-6.941407-6.953125c-4.15625-4.15625-9.699219-6.441406-15.609375-6.441406s-11.453125 2.285156-15.617187 6.449219l-5.839844 5.859375c-5.089844-2.5-10.390625-4.671875-15.851563-6.492188v-8.359375c0-12.15625-9.894531-22.050781-22.054687-22.050781h-38.550781c-12.160156 0-22.054688 9.894531-22.054688 22.050781v9.0625c-5.148437 1.808594-10.222656 3.972656-15.171875 6.480469l-6.558593-6.558594c-8.597657-8.597656-22.589844-8.597656-31.1875 0l-27.273438 27.269531c-4.152344 4.15625-6.441406 9.691407-6.441406 15.59375 0 5.902344 2.289062 11.441407 6.441406 15.59375l7.25 7.25c-2.242188 4.710938-4.191406 9.550782-5.828125 14.480469h-10.402344c-12.160156 0-22.050781 9.894531-22.050781 22.054688v38.546875c0 12.160156 9.890625 22.054687 22.050781 22.054687h11.109375c1.660156 4.71875 3.59375 9.328125 5.78125 13.792969l-7.90625 7.90625c-4.15625 4.15625-6.445312 9.699219-6.445312 15.609375 0 5.914063 2.289062 11.457031 6.445312 15.613281l27.269532 27.238282c8.597656 8.601562 22.589843 8.601562 31.191406 0l7.902344-7.902344c4.484374 2.199218 9.105468 4.136718 13.828124 5.789062v11.125c0 12.160156 9.890626 22.050782 22.050782 22.050782h7.289062l-.847656 18.527343c-.269531 5.972657 1.808594 11.699219 5.851562 16.132813 4.050782 4.4375 9.570313 7.027344 15.539063 7.296875l10.617187.480469c1.574219 5.179687 3.46875 10.265624 5.667969 15.210937l-7.988281 7.28125c-4.410156 4.035156-6.980469 9.558594-7.25 15.550781-.265625 5.996094 1.8125 11.726563 5.839844 16.125l26.632812 29.171875c8.339844 9.105469 22.550782 9.75 31.679688 1.429688l8.496094-7.769531c4.523437 2.4375 9.253906 4.628906 14.144531 6.550781l-.515625 11.601562c-.554688 12.347657 9.03125 22.84375 21.359375 23.402344l39.488281 1.804687c.339844.015626.683594.019532 1.023438.019532 5.589843 0 10.914062-2.066406 15.089843-5.878906 4.429688-4.050782 7.019531-9.566407 7.289063-15.527344l.53125-11.589844c4.984375-1.445312 9.894531-3.199219 14.683594-5.246094l7.773437 8.519532c4.019531 4.414062 9.539063 6.992187 15.53125 7.265624 5.996094.269532 11.71875-1.792968 16.132813-5.816406l29.179687-26.644531c4.417969-4.023437 6.996094-9.542969 7.261719-15.542969.269531-5.988281-1.804688-11.722656-5.839844-16.148437l-7.261719-7.949219c2.648438-4.742188 5-9.640625 7.03125-14.660156l10.589844.484375c5.957031.285156 11.679687-1.78125 16.113281-5.816407 4.445313-4.050781 7.039063-9.570312 7.308594-15.542968l1.804688-39.488282c.554687-12.347656-9.03125-22.84375-21.371094-23.398437l-9.621094-.429687c-1.535156-5.539063-3.425781-10.957032-5.652344-16.191407l6.957032-6.355469c9.105468-8.339843 9.753906-22.546874 1.433593-31.679687l-7.671875-8.394531c51.921875-17.570313 89.402344-66.75 89.402344-124.519532zm-365.480469 196.804688-.265625 5.816406h-7.976562c-3.761719 0-6.9375-3.175781-6.9375-6.9375v-16.609375c0-3.335937-2.191406-6.28125-5.386719-7.238281-7.402344-2.222656-14.585937-5.234375-21.351563-8.949219-2.945312-1.617187-6.605468-1.09375-8.980468 1.28125l-11.8125 11.816407c-2.707032 2.707031-7.109375 2.707031-9.820313-.003907l-27.265625-27.238281c-1.300781-1.300781-2.019531-3.046875-2.019531-4.921875 0-1.871094.71875-3.621094 2.019531-4.921875l11.8125-11.8125c2.375-2.375 2.898438-6.027344 1.285156-8.972656-3.683593-6.734375-6.699218-13.917969-8.957031-21.355469-.96875-3.183594-3.902343-5.359375-7.230469-5.359375h-16.582031c-3.824219 0-6.9375-3.113281-6.9375-6.941406v-38.546875c0-3.828125 3.113281-6.941407 6.9375-6.941407h15.992188c3.386719 0 6.359375-2.25 7.273437-5.511718 2.132813-7.585938 5.105469-14.992188 8.84375-22.011719 1.5625-2.933594 1.023438-6.542969-1.328125-8.894531l-11.113281-11.113282c-1.296875-1.300781-2.015625-3.042968-2.015625-4.90625 0-1.863281.714844-3.605468 2.015625-4.90625l27.273438-27.269531c2.703124-2.707031 7.109374-2.707031 9.816406 0l10.515625 10.519531c2.398437 2.394532 6.101562 2.902344 9.054687 1.238282 7.25-4.085938 14.84375-7.328125 22.566406-9.636719 3.199219-.957031 5.394532-3.902344 5.394532-7.238281v-14.554688c0-3.824218 3.109375-6.9375 6.9375-6.9375h38.550781c3.761719 0 6.941406 3.175782 6.941406 6.9375v13.933594c0 3.375 2.238281 6.34375 5.488281 7.269531 8.1875 2.332031 16.019532 5.539063 23.265626 9.53125 2.949218 1.625 6.621093 1.101563 8.996093-1.285156l9.753907-9.777344c1.296874-1.300781 3.046874-2.019531 4.917968-2.019531 1.875 0 3.621094.71875 4.917969 2.015625l12.289063 12.308594c-2.796876 10.652343-4.289063 21.824219-4.289063 33.335937 0 27.289063 8.363281 52.65625 22.65625 73.683594-3.664063 3.855469-5.945313 8.964844-6.207031 14.453125l-.378906 8.59375c-5.75 1.671875-11.347657 3.71875-16.730469 6.121094l-5.851563-6.417969c-2.449218-2.6875-5.460937-4.683594-8.789062-5.90625 2.703125-8.121094 4.078125-16.609375 4.078125-25.355469 0-44.300781-36.042969-80.34375-80.347657-80.34375-44.300781 0-80.34375 36.042969-80.34375 80.34375 0 44.304688 36.042969 80.347657 80.34375 80.347657 5.964844 0 11.84375-.648438 17.578126-1.925782.878906 3.578125 2.636718 6.898438 5.179687 9.691406l6.355469 6.980469c-2.714844 5.050781-5.089844 10.265625-7.101563 15.597657l-9.628906-.445313c-5.960937-.269531-11.683594 1.8125-16.113281 5.859375-4.433594 4.050781-7.023438 9.566406-7.289063 15.53125zm76.25-131.632812c0 8.949218-1.769531 17.558593-5.242187 25.65625-2.394532.980468-4.628906 2.363281-6.59375 4.152343l-29.183594 26.644531c-1.84375 1.679688-3.34375 3.628907-4.511719 5.753907-6.339843 2.003906-12.953125 3.019531-19.699219 3.019531-35.96875 0-65.230468-29.261719-65.230468-65.226562 0-35.96875 29.261718-65.230469 65.230468-65.230469s65.230469 29.261719 65.230469 65.230469zm213.707031 137.496093c3.941407.179688 7.125 3.667969 6.945313 7.617188l-1.804687 39.488281c-.085938 1.933594-.933594 3.730469-2.386719 5.054688-1.441407 1.3125-3.285157 1.992187-5.230469 1.890624l-16.074219-.730468c-3.316406-.15625-6.355469 1.886718-7.46875 5.023437-2.707031 7.644531-6.257812 15.039063-10.554687 21.980469-1.777344 2.875-1.433594 6.578125.847656 9.074219l11.023438 12.066406c1.316406 1.441406 1.992187 3.320313 1.902343 5.289063-.085937 1.953124-.917969 3.746093-2.347656 5.046874l-29.179687 26.644532c-1.429688 1.304687-3.308594 1.972656-5.257813 1.882812-1.957031-.089844-3.75-.921875-5.050781-2.351562l-11.480469-12.578125c-2.246094-2.460938-5.84375-3.160157-8.851563-1.71875-7.167968 3.441406-14.695312 6.128906-22.367187 7.984375-3.265625.792968-5.617187 3.644531-5.769531 7l-.792969 17.125c-.085937 1.9375-.933594 3.730468-2.382813 5.058594-1.449218 1.320312-3.308593 2.003906-5.230468 1.917968l-39.488282-1.808594c-3.945312-.175781-7.125-3.667968-6.949218-7.625l.761718-17.117187c.152344-3.34375-1.917968-6.386719-5.082031-7.480469-7.65625-2.644531-14.910156-6.003906-21.5625-9.996094-2.867187-1.71875-6.523437-1.351562-8.988281.90625l-12.539062 11.46875c-2.976563 2.710938-7.621094 2.496094-10.339844-.46875l-26.628906-29.167968c-1.308594-1.429688-1.980469-3.292969-1.894532-5.253906.089844-1.964844.925782-3.769532 2.34375-5.066407l12.097656-11.027343c2.496094-2.273438 3.179688-5.929688 1.671876-8.957032-3.625-7.277344-6.496094-14.96875-8.527344-22.851562-.828125-3.214844-3.65625-5.511719-6.972656-5.664063l-16.082032-.734375c-1.933594-.085937-3.726562-.933594-5.050781-2.382812-1.328125-1.453125-2.007813-3.324219-1.921875-5.257813l1.804688-39.460937c.085937-1.9375.933593-3.730469 2.386718-5.054688 1.445313-1.324218 3.3125-2.007812 5.226563-1.921875l15.226562.707031c3.394531.15625 6.476563-1.972656 7.535157-5.199218 2.597656-7.957032 6.105468-15.671875 10.421874-22.9375 1.699219-2.859375 1.332032-6.492188-.90625-8.949219l-10.039062-11.027344c-1.304688-1.429687-1.972656-3.296875-1.882812-5.261719.085937-1.953124.917968-3.75 2.347656-5.050781l29.183594-26.644531c1.429687-1.304688 3.296874-1.976562 5.257812-1.878906 1.957031.085937 3.75.917968 5.046875 2.34375l9.617187 10.546875c2.28125 2.503906 5.949219 3.183593 8.976563 1.664062 7.601563-3.8125 15.769531-6.804687 24.269531-8.890625 3.261719-.800781 5.605469-3.652344 5.75-7.007812l.621094-14.101563c.042969-.953125.289062-1.871093.683594-2.710937 24.117187 27.738281 59.652344 45.300781 99.214844 45.300781 8.199218 0 16.226562-.761719 24.019531-2.207031.519531-.078125 1.046875-.167969 1.578125-.269532l12.949218 14.167969c2.714844 2.976563 2.5 7.621094-.46875 10.335938l-10.996093 10.042969c-2.460938 2.246093-3.160157 5.839843-1.722657 8.84375 3.605469 7.515624 6.398438 15.53125 8.308594 23.816406.761719 3.308594 3.636719 5.699218 7.027344 5.851562zm0 0"/><path d="m268.824219 320.03125c-.125.101562-.25.195312-.375.292969-.15625.132812-.304688.273437-.460938.402343-.414062.351563-.828125.703126-1.230469 1.074219-.558593.507813-1.101562 1.023438-1.628906 1.554688-.148437.152343-.289062.308593-.4375.460937-.371094.382813-.742187.769532-1.097656 1.164063-.429688.472656-.839844.960937-1.25 1.453125-.0625.078125-.132812.152344-.195312.230468-.429688.523438-.839844 1.058594-1.242188 1.597657-.039062.050781-.078125.097656-.117188.148437-.339843.460938-.660156.929688-.980468 1.402344-.09375.136719-.191406.265625-.28125.402344-.296875.441406-.574219.894531-.847656 1.347656-.105469.171875-.21875.335938-.324219.511719-1.804688 3.027343-3.234375 6.261719-4.277344 9.640625-.039063.125-.082031.246094-.121094.371094-.625 2.089843-1.097656 4.234374-1.417969 6.421874-.003906.015626-.007812.035157-.007812.050782-.046875.328125-.078125.65625-.117188.980468-.140624 1.152344-.25 2.3125-.304687 3.480469-.550781 12.019531 3.617187 23.535157 11.734375 32.417969 8.886719 9.730469 21.082031 14.667969 33.316406 14.667969 10.851563 0 21.730469-3.886719 30.347656-11.757813.574219-.523437 1.128907-1.058594 1.671876-1.605468 8.628906-8.726563 12.996093-20.238282 12.96875-31.78125-.015626-7.9375-2.113282-15.886719-6.324219-22.957032-1.53125-2.570312-3.339844-5.027344-5.433594-7.320312-8.113281-8.886719-19.203125-14.078125-31.222656-14.621094-11.109375-.503906-21.777344 3.027344-30.34375 9.96875zm50.402343 14.839844c11.128907 12.207031 10.273438 31.191406-1.90625 42.316406-12.1875 11.132812-31.171874 10.261719-42.316406-1.941406-4.714844-5.164063-7.425781-11.667969-7.785156-18.558594-.050781-.988281-.054688-1.980469-.007812-2.976562.363281-7.988282 3.820312-15.355469 9.730468-20.742188.003906 0 .003906-.003906.003906-.003906 5.5625-5.082032 12.671876-7.832032 20.15625-7.832032.460938 0 .921876.007813 1.386719.03125 7.988281.359376 15.355469 3.8125 20.738281 9.707032zm0 0"/><path d="m376.054688 36.265625c-52.464844 0-95.152344 42.699219-95.152344 95.179687 0 52.464844 42.6875 95.148438 95.152344 95.148438 52.464843 0 95.148437-42.6875 95.148437-95.148438 0-52.480468-42.683594-95.179687-95.148437-95.179687zm76.453124 102.734375h3.214844c-3.585937 38.109375-34 68.523438-72.109375 72.109375v-3.214844c0-4.171875-3.386719-7.554687-7.558593-7.554687-4.175782 0-7.558594 3.382812-7.558594 7.554687v3.214844c-38.109375-3.585937-68.523438-34-72.109375-72.109375h3.214843c4.171876 0 7.554688-3.382812 7.554688-7.554688 0-4.175781-3.382812-7.558593-7.554688-7.558593h-3.214843c3.585937-38.125 34-68.550781 72.109375-72.140625v3.246094c0 4.171874 3.382812 7.554687 7.558594 7.554687 4.171874 0 7.558593-3.382813 7.558593-7.554687v-3.246094c38.109375 3.589844 68.523438 34.015625 72.109375 72.140625h-3.214844c-4.175781 0-7.558593 3.382812-7.558593 7.558593 0 4.171876 3.382812 7.554688 7.558593 7.554688zm0 0"/><path d="m376.054688 86.4375c-4.175782 0-7.558594 3.382812-7.558594 7.554688v42.613281h-17.511719c-4.175781 0-7.558594 3.382812-7.558594 7.558593 0 4.171876 3.382813 7.554688 7.558594 7.554688h25.070313c4.171874 0 7.558593-3.382812 7.558593-7.554688v-50.171874c-.003906-4.171876-3.386719-7.554688-7.558593-7.554688zm0 0"/></svg>