<svg height="512" viewBox="0 0 60 54" width="512" xmlns="http://www.w3.org/2000/svg"><g id="Page-1" fill="none" fill-rule="evenodd"><g id="071---Portfolio" fill="rgb(0,0,0)" fill-rule="nonzero"><path id="Shape" d="m53 8h-4.465l-3.571-5.357c-.1775091-1.50376021-1.4498065-2.6382683-2.964-2.643h-24c-1.5141935.0047317-2.7864909 1.13923979-2.964 2.643l-3.571 5.357h-4.465c-3.86416566.00440864-6.99559136 3.1358343-7 7v34c.00330612 2.7600532 2.23994685 4.9966939 5 5h50c2.7600532-.0033061 4.9966939-2.2399468 5-5v-34c-.0044086-3.8641657-3.1358343-6.99559136-7-7zm-35-6h24c.5522847 0 1 .44771525 1 1s-.4477153 1-1 1h-24c-.5522847 0-1-.44771525-1-1s.4477153-1 1-1zm-2.171 3.059c.5630012.59953874 1.3485548.94002974 2.171.941h24c.8224452-.00097026 1.6079988-.34146126 2.171-.941l1.961 2.941h-32.264zm37.171 4.941c.6068294.0038516 1.2077938.1190957 1.773.34-.5035877.7959248-.7715856 1.7181429-.773 2.66v18c0 .5522847-.4477153 1-1 1h-17.759c.4275-1.0514002.6769119-2.1666568.738-3.3.2828652-3.3800994-2.2029741-6.3600767-5.579-6.688-1.6586827-.116881-3.2905629.4658816-4.5 1.607-1.2096146 1.136375-1.8969949 2.7213294-1.9 4.381-.0163213 1.3703243.2406866 2.7301547.756 4h-17.756c-.55228475 0-1-.4477153-1-1v-18c-.00141435-.9418571-.26941231-1.8640752-.773-2.66.56520619-.2209043 1.16617063-.3361484 1.773-.34zm-27 18c-.0002365-1.1072134.4584734-2.1649966 1.2669239-2.9215212.8084504-.7565247 1.8943135-1.1441085 2.9990761-1.0704788 2.2655953.2798586 3.9056725 2.2991622 3.715 4.574-.0344149.6788681-.1536754 1.3507583-.355 2-.5179875-.969947-1.5264148-1.577461-2.626-1.582h-2c-1.0989414.0039456-2.1072123.6102136-2.626 1.579-.258647-.834846-.3848451-1.7050729-.374-2.579zm6 8h-4v-4c0-.5522847.4477153-1 1-1h2c.5522847 0 1 .4477153 1 1zm1 2v2h-6v-2zm-5 4h4v4c0 1.1045695-.8954305 2-2 2s-2-.8954305-2-2zm30 7c0 1.6568542-1.3431458 3-3 3h-50c-1.65685425 0-3-1.3431458-3-3v-34c.00119734-1.3534429.55321468-2.6481023 1.529-3.586.30374993.473522.46706157 1.0234419.471 1.586v18c0 1.6568542 1.34314575 3 3 3h18.6c.26069.6347458.3965039 1.3138154.4 2v.278c-.6167513.3544126-.997855 1.0106732-1 1.722v2c.002145.7113268.3832487 1.3675874 1 1.722v4.278c0 2.209139 1.790861 4 4 4s4-1.790861 4-4v-4.278c.6167513-.3544126.997855-1.0106732 1-1.722v-2c-.002145-.7113268-.3832487-1.3675874-1-1.722v-.278c.003696-.6861643.1395023-1.3651961.4-2h18.6c1.6568542 0 3-1.3431458 3-3v-18c.0039384-.5625581.1672501-1.112478.471-1.586.9757853.9378977 1.5278027 2.2325571 1.529 3.586z"/><path id="Shape" d="m7 48h-2c-.55228475 0-1 .4477153-1 1s.44771525 1 1 1h2c.55228475 0 1-.4477153 1-1s-.44771525-1-1-1z"/><path id="Shape" d="m23 48h-12c-.5522847 0-1 .4477153-1 1s.4477153 1 1 1h12c.5522847 0 1-.4477153 1-1s-.4477153-1-1-1z"/><path id="Shape" d="m55 48h-2c-.5522847 0-1 .4477153-1 1s.4477153 1 1 1h2c.5522847 0 1-.4477153 1-1s-.4477153-1-1-1z"/><path id="Shape" d="m49 48h-12c-.5522847 0-1 .4477153-1 1s.4477153 1 1 1h12c.5522847 0 1-.4477153 1-1s-.4477153-1-1-1z"/></g></g></svg>